# xmcd
# 
# Track frame offsets:
#     150
#     22312
#     63780
#     95087
#     118267
#     145230
#     171052
#     199050
# 
# Disc length: 2879
# 
# Revision: 1
# Processed by: cddbd v1.5.2PL0 Copyright (c) Steve Scherf et al.
# Submitted via: BonkEnc v1.0.5
# 
DISCID=740b3d08
DTITLE=Walter Bishop Jr. Trio - Speak Low
DYEAR=1993
DGENRE=Jazz
TTITLE0=Yardbird Suite
TTITLE1=The Masquerade Is Over
TTITLE2=Speak Low
TTITLE3=Just Friends
TTITLE4=Valley Land
TTITLE5=Keiko's Samba
TTITLE6=Bish Bash Blues
TTITLE7=Spring Is Here
EXTD=YEAR: 1993
EXTT0=
EXTT1=
EXTT2=
EXTT3=
EXTT4=
EXTT5=
EXTT6=
EXTT7=
PLAYORDER=
